<?xml version="1.0" standalone="no"?>
<!DOCTYPE svg PUBLIC "-//W3C//DTD SVG 20010904//EN"
 "http://www.w3.org/TR/2001/REC-SVG-20010904/DTD/svg10.dtd">
<svg version="1.0" xmlns="http://www.w3.org/2000/svg"
 width="400.000000pt" height="400.000000pt" viewBox="0 0 400.000000 400.000000"
 preserveAspectRatio="xMidYMid meet">
<metadata>
Created by potrace 1.14, written by Peter Selinger 2001-2017
</metadata>
<g transform="translate(0.000000,400.000000) scale(0.100000,-0.100000)"
fill="#000000" stroke="none">
<path d="M1735 3984 c-299 -45 -586 -150 -815 -299 -177 -115 -356 -275 -478
-430 -35 -44 -70 -88 -78 -98 -8 -9 -14 -19 -14 -22 0 -2 -21 -37 -47 -77
-141 -216 -250 -521 -290 -808 -10 -69 -9 -436 1 -510 4 -30 18 -106 32 -168
99 -445 349 -850 694 -1125 47 -38 93 -75 103 -83 9 -8 19 -14 21 -14 3 0 33
-19 68 -42 186 -124 531 -255 743 -284 28 -3 59 -8 70 -11 39 -10 421 -11 490
-1 310 42 638 160 847 306 26 17 49 32 52 32 3 0 14 6 23 14 10 8 59 47 108
87 139 112 311 297 371 398 10 17 22 31 26 31 4 0 8 5 8 10 0 6 17 37 38 68
128 194 240 513 279 792 10 70 10 437 0 510 -27 196 -105 449 -196 630 -49 99
-180 309 -215 346 -6 6 -44 50 -85 97 -40 47 -111 118 -158 158 -47 41 -91 79
-97 85 -37 35 -242 163 -343 214 -177 88 -410 164 -573 186 -25 3 -54 8 -65
11 -49 12 -434 10 -520 -3z"/>
</g>
</svg>
